<?xml version="1.0" encoding="UTF-8"?>
<!-- Generator: Adobe Illustrator 27.1.1, SVG Export Plug-In . SVG Version: 6.00 Build 0)  -->
<svg xmlns="http://www.w3.org/2000/svg" xmlns:xlink="http://www.w3.org/1999/xlink" version="1.1" id="Vrstva_1" x="0px" y="0px" width="400px" height="180px" viewBox="0 0 400 180" style="enable-background:new 0 0 400 180;" xml:space="preserve">
<style type="text/css">
	.st0{fill:#E53212;}
</style>
<g>
	<path class="st0" d="M367.8,68.78c0,6.74-2.31,8.08-7.28,8.08h-4.62V62.66h5.5C365.22,62.66,367.8,63.64,367.8,68.78 M385.09,68.87   c0-14.11-9.22-19.25-24.93-19.25h-20.14v61.83h15.88v-22h4.97C381.1,89.45,385.09,78.01,385.09,68.87 M332.04,98.23h-17.74   c-2.31,0-5.33,0.18-6.74,0.53c0.63-0.53,2.04-1.95,2.84-3.28l21.29-34.77V49.62H291.6l-1.16,13.04h16.06   c2.04,0,4.79-0.09,6.12-0.44c-0.89,0.8-2.4,3.28-3.55,5.24l-20.49,33.18v10.82h42.22L332.04,98.23z M286.8,49.62h-16.77   l-8.78,25.02c-1.15,3.19-2.31,7.09-3.28,12.06h-0.1c-0.98-5.5-1.77-7.81-2.92-11.62l-7.81-25.46h-17.48l21.03,61.83h14.28   L286.8,49.62z"></path>
	<path class="st0" d="M107.86,117.81l-14.01,24.72l13.47,25.17h28.56l-13.39-24.9l13.84-24.99H107.86z M123.21,40.52L48.88,167.7   h23.38l51.14-88l23.38,38.11l-11.42,19.64h46.67L123.21,40.52z M206.84,123.88c-1.88-2.77-57.84-94.96-59.35-97.01   c-1.6-2.05-6.96-13.75-24.28-13.75c-17.67,0-23.38,12.14-25.44,15.35c-2.14,3.21-82.55,139.14-82.55,139.14l22.94,0.08   c0,0,72.65-122.98,77.2-130.03c4.64-7.14,12.22-4.64,14.55-0.98c2.22,3.75,55.78,90.86,60.42,98.35c1.07,1.79,1.6,5.09-0.27,8.56   c-1.79,3.4-5,4.28-7.32,4.28h-47.57l11.6,19.82h38.02c3.66,0,14.55-1.51,22.93-12.23C217.91,142.44,208.62,126.56,206.84,123.88"></path>
</g>
</svg>
